<svg width="29" height="32" viewBox="0 0 29 32" fill="none" xmlns="http://www.w3.org/2000/svg">
<g clip-path="url(#clip0_401_3437)">
<path d="M20.8192 20.4603V7.44365C21.7376 8.32796 22.4701 9.40245 22.9513 10.6046H29.0009C28.8174 7.22583 27.3541 4.73059 25.7147 3.27165C20.8127 -1.09055 8.20866 -1.09055 3.30668 3.27165C0.0359748 6.18059 -2.53492 13.2144 4.35722 23.158C8.09284 28.5483 11.521 30.8192 13.2779 31.7068C14.0527 32.0985 14.9687 32.0985 15.7435 31.7068C17.5012 30.8192 20.9285 28.5491 24.6642 23.158C26.1087 21.074 27.1372 19.1168 27.8305 17.2994H22.9513C22.4709 18.5015 21.7376 19.576 20.8192 20.4603ZM19.2434 21.6763C18.5518 22.0981 17.7989 22.4305 17.0012 22.6573V5.2467C17.7989 5.47266 18.5518 5.8059 19.2434 6.22773V21.6763ZM5.42734 13.9524C5.42734 10.2868 7.61488 7.12992 10.7592 5.70674V22.1973C7.61406 20.7749 5.42734 17.618 5.42734 13.9524ZM12.335 22.741V5.16299C13.0315 4.9923 13.7599 4.90127 14.5103 4.90127C14.8194 4.90127 15.1245 4.91834 15.4254 4.94841V22.9556C15.1245 22.9856 14.8194 23.0027 14.5103 23.0027C13.7607 23.0027 13.0323 22.9117 12.335 22.741Z" fill="white"/>
</g>
<defs>
<clipPath id="clip0_401_3437">
<rect width="29" height="32" fill="white"/>
</clipPath>
</defs>
</svg>
