<svg width="24" height="24" viewBox="0 0 24 24" fill="none" xmlns="http://www.w3.org/2000/svg">
<path d="M15.5625 9.84375L15.375 8.5H16.25C16.6562 8.5 17 8.1875 17 7.75V4.75C17 4.34375 16.6562 4 16.25 4H7.75C7.3125 4 7 4.34375 7 4.75V7.75C7 8.1875 7.3125 8.5 7.75 8.5H8.59375L8.40625 9.84375C6.90625 10.875 6 12.4688 6 14.25C6 14.6875 6.3125 15 6.75 15H11.25V18.25C11.25 18.2812 11.25 18.3125 11.25 18.3438L11.75 19.8438C11.8125 20.0625 12.1562 20.0625 12.2188 19.8438L12.7188 18.3438C12.7188 18.3125 12.75 18.2812 12.75 18.25V15H17.25C17.6562 15 18 14.6875 18 14.25C18 12.4688 17.0625 10.875 15.5625 9.84375ZM7.5625 13.5C7.8125 12.3125 8.6875 11.3125 9.8125 10.7812L10.3125 7H8.5V5.5H15.5V7H13.6875L14.1875 10.7812C15.2812 11.3125 16.1562 12.3125 16.4062 13.5H7.5625Z" fill="#333333"/>
</svg>
