<svg width="24" height="24" viewBox="0 0 24 24" fill="none" xmlns="http://www.w3.org/2000/svg">
<path d="M18.5 5H5.5C4.65625 5 4 5.6875 4 6.5V9C4 9.28125 4.21875 9.5 4.5 9.5H5V18C5 18.5625 5.4375 19 6 19H18C18.5312 19 19 18.5625 19 18V9.5H19.5C19.75 9.5 20 9.28125 20 9V6.5C20 5.6875 19.3125 5 18.5 5ZM17.5 17.5H6.5V9.5H17.5V17.5ZM18.5 8H5.5V6.5H18.5V8ZM10.375 12.5H13.625C13.8125 12.5 14 12.3438 14 12.125V11.375C14 11.1875 13.8125 11 13.625 11H10.375C10.1562 11 10 11.1875 10 11.375V12.125C10 12.3438 10.1562 12.5 10.375 12.5Z" fill="#333333"/>
</svg>
