<svg width="24" height="25" viewBox="0 0 24 25" fill="none" xmlns="http://www.w3.org/2000/svg">
<path d="M12 8.94336C11.7188 8.97461 11.2812 9.03711 11 9.09961C11.125 9.31836 11.2188 9.72461 11.25 9.94336C11.25 10.9121 10.4375 11.6934 9.5 11.6934C9.25 11.6934 8.84375 11.5996 8.65625 11.4746C8.5625 11.7559 8.5 12.1621 8.5 12.4434C8.5 14.3809 10.0625 15.9434 12 15.9434C13.9375 15.9434 15.5 14.3809 15.5 12.4434C15.5 10.5371 13.9375 8.94336 12 8.94336ZM20.875 12.0059C19.1875 8.69336 15.8125 6.44336 12 6.44336C8.15625 6.44336 4.78125 8.69336 3.09375 12.0059C3.03125 12.1309 3 12.3184 3 12.4746C3 12.5996 3.03125 12.7871 3.09375 12.9121C4.78125 16.2246 8.15625 18.4434 12 18.4434C15.8125 18.4434 19.1875 16.2246 20.875 12.9121C20.9375 12.7871 20.9688 12.5996 20.9688 12.4434C20.9688 12.3184 20.9375 12.1309 20.875 12.0059ZM12 16.9434C8.90625 16.9434 6.0625 15.2246 4.5625 12.4434C6.0625 9.66211 8.90625 7.94336 12 7.94336C15.0625 7.94336 17.9062 9.66211 19.4062 12.4434C17.9062 15.2246 15.0625 16.9434 12 16.9434Z" fill="#686868"/>
</svg>
