<svg width="24" height="24" viewBox="0 0 24 24" fill="none" xmlns="http://www.w3.org/2000/svg">
<path d="M4.25 12C4.25 16.2812 7.71875 19.75 12 19.75C16.2812 19.75 19.75 16.2812 19.75 12C19.75 7.71875 16.2812 4.25 12 4.25C7.71875 4.25 4.25 7.71875 4.25 12ZM18.25 12C18.25 15.4688 15.4375 18.25 12 18.25C8.53125 18.25 5.75 15.4688 5.75 12C5.75 8.5625 8.53125 5.75 12 5.75C15.4375 5.75 18.25 8.5625 18.25 12ZM12.3125 7.96875C12.1875 7.8125 11.9375 7.8125 11.7812 7.96875L11.1875 8.5625C11.0312 8.71875 11.0312 8.96875 11.1875 9.09375L13.375 11.1875H8.375C8.15625 11.1875 8 11.375 8 11.5625V12.4375C8 12.6562 8.15625 12.8125 8.375 12.8125H13.375L11.1875 14.9375C11.0312 15.0625 11.0312 15.3125 11.1875 15.4688L11.7812 16.0625C11.9375 16.2188 12.1875 16.2188 12.3125 16.0625L16.125 12.2812C16.2812 12.125 16.2812 11.9062 16.125 11.75L12.3125 7.96875Z" fill="#333333"/>
</svg>
