<svg width="24" height="24" viewBox="0 0 24 24" fill="none" xmlns="http://www.w3.org/2000/svg">
<path d="M12 5.75C15.4375 5.75 18.25 8.5625 18.25 12C18.25 15.4688 15.4375 18.25 12 18.25C8.53125 18.25 5.75 15.4688 5.75 12C5.75 8.5625 8.53125 5.75 12 5.75ZM12 4.25C7.71875 4.25 4.25 7.75 4.25 12C4.25 16.2812 7.71875 19.75 12 19.75C16.25 19.75 19.75 16.2812 19.75 12C19.75 7.75 16.25 4.25 12 4.25ZM12 9.5C10.5938 9.5 9.5 10.625 9.5 12C9.5 13.4062 10.5938 14.5 12 14.5C13.375 14.5 14.5 13.4062 14.5 12C14.5 10.625 13.375 9.5 12 9.5Z" fill="#333333"/>
</svg>
