<svg width="24" height="25" viewBox="0 0 24 25" fill="none" xmlns="http://www.w3.org/2000/svg">
<path d="M12 5.44336C7.5625 5.44336 4 8.38086 4 11.9434C4 13.4434 4.59375 14.8184 5.625 15.9121C5.1875 17.1309 4.21875 18.1934 4.1875 18.1934C3.96875 18.4121 3.9375 18.7246 4.03125 19.0059C4.15625 19.2871 4.4375 19.4434 4.75 19.4434C6.65625 19.4434 8.1875 18.6621 9.09375 18.0059C10 18.2871 10.9688 18.4434 12 18.4434C16.4062 18.4434 20 15.5371 20 11.9434C20 8.38086 16.4062 5.44336 12 5.44336ZM12 16.9434C11.1562 16.9434 10.3125 16.8184 9.53125 16.5684L8.8125 16.3496L8.21875 16.7871C7.78125 17.0996 7.15625 17.4434 6.40625 17.6934C6.65625 17.3184 6.875 16.8809 7.03125 16.4434L7.375 15.5684L6.71875 14.8809C6.15625 14.2871 5.5 13.2871 5.5 11.9434C5.5 9.19336 8.40625 6.94336 12 6.94336C15.5625 6.94336 18.5 9.19336 18.5 11.9434C18.5 14.7246 15.5625 16.9434 12 16.9434Z" fill="#686868"/>
</svg>
