<svg width="24" height="24" viewBox="0 0 24 24" fill="none" xmlns="http://www.w3.org/2000/svg">
<path d="M13 6.5C16.5625 6.5 19.5 8.75 19.5 11.5C19.5 12.3125 19.25 13.0625 18.8125 13.7188L20 14.625C20.625 13.7188 21 12.6562 21 11.5C21 7.9375 17.4062 5 13 5C11.4688 5 10.0938 5.34375 8.875 5.9375L10.2188 7C11.0625 6.6875 12 6.5 13 6.5ZM13 16.5C12.1562 16.5 11.3125 16.375 10.5312 16.125L9.8125 15.9062L9.21875 16.3438C8.78125 16.6562 8.15625 17 7.40625 17.25C7.65625 16.875 7.875 16.4375 8.03125 16L8.375 15.125L7.71875 14.4375C7.15625 13.8438 6.5 12.8438 6.5 11.5C6.5 11 6.59375 10.5 6.78125 10.0312L5.5625 9.0625C5.1875 9.84375 5 10.6562 5 11.5C5 13 5.59375 14.375 6.625 15.4688C6.1875 16.6875 5.21875 17.75 5.1875 17.75C4.96875 17.9688 4.9375 18.2812 5.03125 18.5625C5.15625 18.8438 5.4375 19 5.75 19C7.65625 19 9.1875 18.2188 10.0938 17.5625C11 17.8438 11.9688 18 13 18C14.1562 18 15.2812 17.8125 16.2812 17.4375L14.8125 16.3125C14.25 16.4375 13.625 16.5 13 16.5ZM22.8125 18.7188L18.0312 15L17.8125 14.8438L4.125 4.125C3.90625 3.9375 3.59375 4 3.40625 4.1875L3.09375 4.59375C2.9375 4.8125 2.96875 5.125 3.1875 5.28125L21.875 19.9062C22.0625 20.0625 22.4062 20.0312 22.5625 19.8125L22.875 19.4375C23.0625 19.2188 23 18.9062 22.8125 18.7188Z" fill="#333333"/>
</svg>
