<svg width="24" height="25" viewBox="0 0 24 25" fill="none" xmlns="http://www.w3.org/2000/svg">
<path d="M12 9.19693C10.7505 9.19693 9.75098 10.2277 9.75098 11.446C9.75098 12.6954 10.7505 13.695 12 13.695C13.2182 13.695 14.249 12.6954 14.249 11.446C14.249 10.2277 13.2182 9.19693 12 9.19693ZM12 12.1956C11.5627 12.1956 11.2503 11.8833 11.2503 11.446C11.2503 11.0399 11.5627 10.6963 12 10.6963C12.4061 10.6963 12.7497 11.0399 12.7497 11.446C12.7497 11.8833 12.4061 12.1956 12 12.1956ZM12 14.6946C10.7505 14.6946 9.75098 15.7254 9.75098 16.9436C9.75098 18.193 10.7505 19.1926 12 19.1926C13.2182 19.1926 14.249 18.193 14.249 16.9436C14.249 15.7254 13.2182 14.6946 12 14.6946ZM12 17.6933C11.5627 17.6933 11.2503 17.3809 11.2503 16.9436C11.2503 16.5375 11.5627 16.1939 12 16.1939C12.4061 16.1939 12.7497 16.5375 12.7497 16.9436C12.7497 17.3809 12.4061 17.6933 12 17.6933ZM12 8.19737C13.2182 8.19737 14.249 7.1978 14.249 5.94834C14.249 4.73012 13.2182 3.69932 12 3.69932C10.7505 3.69932 9.75098 4.73012 9.75098 5.94834C9.75098 7.1978 10.7505 8.19737 12 8.19737ZM12 5.19867C12.4061 5.19867 12.7497 5.54227 12.7497 5.94834C12.7497 6.38565 12.4061 6.69802 12 6.69802C11.5627 6.69802 11.2503 6.38565 11.2503 5.94834C11.2503 5.54227 11.5627 5.19867 12 5.19867Z" fill="#333333"/>
</svg>
