<svg width="24" height="25" viewBox="0 0 24 25" fill="none" xmlns="http://www.w3.org/2000/svg">
<path d="M20.5312 10.4121L15.0312 4.91211C14.0938 3.94336 12.5 4.63086 12.5 5.97461V8.47461C8.1875 8.59961 3 9.44336 3 14.7871C3 17.0684 4.1875 18.9746 6.03125 20.1934C7.1875 20.9746 8.71875 19.8809 8.28125 18.5059C7.53125 16.0684 7.90625 14.7871 12.5 14.5059V16.9434C12.5 18.2871 14.0938 18.9746 15.0312 18.0059L20.5312 12.5059C21.125 11.9434 21.125 10.9746 20.5312 10.4121ZM14 16.9434V12.9746C8.84375 13.0059 5.3125 14.0059 6.875 18.9434C5.75 18.1934 4.5 16.8809 4.5 14.7871C4.5 10.3184 9.5 9.97461 14 9.97461V5.94336L19.5 11.4434L14 16.9434Z" fill="#686868"/>
</svg>
